<?xml version="1.0" encoding="UTF-8" standalone="no"?>
<!-- Created with Inkscape (http://www.inkscape.org/) -->

<svg
   width="197.6333mm"
   height="55.064049mm"
   viewBox="0 0 197.6333 55.064049"
   version="1.1"
   id="svg1"
   inkscape:version="1.3.2 (091e20e, 2023-11-25, custom)"
   sodipodi:docname="logo.svg"
   xml:space="preserve"
   xmlns:inkscape="http://www.inkscape.org/namespaces/inkscape"
   xmlns:sodipodi="http://sodipodi.sourceforge.net/DTD/sodipodi-0.dtd"
   xmlns="http://www.w3.org/2000/svg"
   xmlns:svg="http://www.w3.org/2000/svg"><sodipodi:namedview
     id="namedview1"
     pagecolor="#ffffff"
     bordercolor="#000000"
     borderopacity="0.25"
     inkscape:showpageshadow="2"
     inkscape:pageopacity="0.0"
     inkscape:pagecheckerboard="0"
     inkscape:deskcolor="#d1d1d1"
     inkscape:document-units="mm"
     inkscape:zoom="1.0343421"
     inkscape:cx="334.99555"
     inkscape:cy="128.10075"
     inkscape:window-width="1920"
     inkscape:window-height="1017"
     inkscape:window-x="1912"
     inkscape:window-y="-8"
     inkscape:window-maximized="1"
     inkscape:current-layer="layer1" /><defs
     id="defs1"><rect
       x="0"
       y="339.08023"
       width="952.97955"
       height="319.9386"
       id="rect2" /><inkscape:path-effect
       effect="fillet_chamfer"
       id="path-effect22"
       is_visible="true"
       lpeversion="1"
       nodesatellites_param="F,0,0,1,0,0,0,1 @ F,0,0,1,0,83.445488,0,1 @ F,0,0,1,0,0,0,1 @ F,0,0,1,0,0,0,1"
       radius="0"
       unit="px"
       method="auto"
       mode="F"
       chamfer_steps="1"
       flexible="false"
       use_knot_distance="true"
       apply_no_radius="true"
       apply_with_radius="true"
       only_selected="false"
       hide_knots="false" /><inkscape:path-effect
       effect="fillet_chamfer"
       id="path-effect21"
       is_visible="true"
       lpeversion="1"
       nodesatellites_param="F,0,0,1,0,0,0,1 @ F,0,0,1,0,83.445488,0,1 @ F,0,0,1,0,0,0,1 @ F,0,0,1,0,0,0,1"
       radius="0"
       unit="px"
       method="auto"
       mode="F"
       chamfer_steps="1"
       flexible="false"
       use_knot_distance="true"
       apply_no_radius="true"
       apply_with_radius="true"
       only_selected="false"
       hide_knots="false" /><inkscape:path-effect
       effect="fillet_chamfer"
       id="path-effect20"
       is_visible="true"
       lpeversion="1"
       nodesatellites_param="F,0,0,1,0,0,0,1 @ F,0,0,1,0,0,0,1 @ F,0,0,1,0,83.445488,0,1 @ F,0,0,1,0,0,0,1"
       radius="0"
       unit="px"
       method="auto"
       mode="F"
       chamfer_steps="1"
       flexible="false"
       use_knot_distance="true"
       apply_no_radius="true"
       apply_with_radius="true"
       only_selected="false"
       hide_knots="false" /><inkscape:path-effect
       effect="fillet_chamfer"
       id="path-effect19"
       is_visible="true"
       lpeversion="1"
       nodesatellites_param="F,0,0,1,0,83.445488,0,1 @ F,0,0,1,0,0,0,1 @ F,0,0,1,0,0,0,1 @ F,0,0,1,0,0,0,1"
       radius="0"
       unit="px"
       method="auto"
       mode="F"
       chamfer_steps="1"
       flexible="false"
       use_knot_distance="true"
       apply_no_radius="true"
       apply_with_radius="true"
       only_selected="false"
       hide_knots="false" /></defs><g
     inkscape:label="Capa 1"
     inkscape:groupmode="layer"
     id="layer1"
     transform="translate(-31.25259,-102.2336)"><g
       id="text1"
       style="font-weight:bold;font-size:42.3333px;line-height:0;font-family:Montserrat;-inkscape-font-specification:'Montserrat Bold';letter-spacing:0px;stroke-width:0.264583;stroke-linecap:round;stroke-linejoin:round"
       transform="scale(0.96578606,1.035426)"
       aria-label="OSPET"><path
         id="path5"
         style="font-weight:800;-inkscape-font-specification:'Montserrat Ultra-Bold'"
         d="M 219.55307,140.14249 V 117.1555 h -9.10166 v -6.64632 h 26.54298 v 6.64632 h -9.05932 v 22.98699 z m -25.7281,-18.16099 h 13.75833 v 6.26533 h -13.75833 z m 0.59267,11.68399 h 15.49399 v 6.477 h -23.79132 v -29.63331 h 23.24099 v 6.47699 h -14.94366 z m -35.5282,6.477 v -29.63331 h 13.54666 q 4.064,0 6.985,1.31233 2.96333,1.31233 4.57199,3.80999 1.60867,2.45534 1.60867,5.842 0,3.34433 -1.60867,5.79966 -1.60866,2.45533 -4.57199,3.81 -2.921,1.31233 -6.985,1.31233 h -8.88999 l 3.72533,-3.64066 v 11.38766 z m 8.382,-10.49866 -3.72533,-3.85233 h 8.38199 q 2.62467,0 3.89466,-1.143 1.31234,-1.143 1.31234,-3.175 0,-2.07433 -1.31234,-3.21733 -1.26999,-1.143 -3.89466,-1.143 h -8.38199 l 3.72533,-3.85233 z m -25.35763,11.09132 q -3.64066,0 -7.02732,-0.889 -3.34433,-0.93133 -5.461,-2.37066 l 2.75167,-6.18066 q 1.98966,1.27 4.57199,2.11666 2.62467,0.80433 5.207,0.80433 1.73566,0 2.794,-0.29633 1.05833,-0.33867 1.52399,-0.84666 0.508,-0.55034 0.508,-1.27 0,-1.016 -0.93133,-1.60867 -0.93133,-0.59267 -2.413,-0.97367 -1.48166,-0.38099 -3.30199,-0.76199 -1.778,-0.381 -3.59833,-0.97367 -1.778,-0.59267 -3.25967,-1.524 -1.48166,-0.97367 -2.413,-2.49766 -0.93133,-1.56634 -0.93133,-3.937 0,-2.667 1.43933,-4.826 1.48167,-2.159 4.40267,-3.47133 2.92099,-1.31233 7.28132,-1.31233 2.921,0 5.715,0.67733 2.83633,0.635 5.03766,1.905 l -2.58233,6.223 q -2.11666,-1.143 -4.191,-1.69334 -2.07433,-0.59266 -4.02166,-0.59266 -1.73566,0 -2.794,0.381 -1.05833,0.33866 -1.524,0.93133 -0.46566,0.59267 -0.46566,1.35467 0,0.97366 0.889,1.56633 0.93133,0.55033 2.41299,0.93133 1.524,0.33867 3.302,0.71967 1.82033,0.381 3.59833,0.97366 1.82034,0.55034 3.302,1.524 1.48167,0.93133 2.37067,2.49767 0.93133,1.524 0.93133,3.85233 0,2.58233 -1.48167,4.78366 -1.43933,2.159 -4.36033,3.47133 -2.87866,1.31233 -7.28133,1.31233 z m -27.58016,0 q -3.556,0 -6.56167,-1.143 -3.00566,-1.143 -5.24933,-3.21733 -2.20133,-2.11666 -3.428993,-4.91066 -1.227666,-2.794 -1.227666,-6.13833 0,-3.34433 1.227666,-6.13833 1.227663,-2.794 3.428993,-4.86833 2.24367,-2.11666 5.24933,-3.25966 3.00567,-1.143 6.56167,-1.143 3.59833,0 6.56166,1.143 3.00566,1.143 5.20699,3.25966 2.20133,2.07433 3.429,4.86833 1.27,2.794 1.27,6.13833 0,3.34433 -1.27,6.18066 -1.22767,2.794 -3.429,4.86833 -2.20133,2.07433 -5.20699,3.21733 -2.96333,1.143 -6.56166,1.143 z m 0,-6.94266 q 1.69333,0 3.13266,-0.59266 1.48167,-0.59267 2.54,-1.69334 1.10066,-1.143 1.69333,-2.70933 0.635,-1.56633 0.635,-3.47133 0,-1.94733 -0.635,-3.47133 -0.59267,-1.56633 -1.69333,-2.667 -1.05833,-1.143 -2.54,-1.73566 -1.43933,-0.59267 -3.13266,-0.59267 -1.69334,0 -3.175,0.59267 -1.43933,0.59266 -2.54,1.73566 -1.05833,1.10067 -1.69333,2.667 -0.59267,1.524 -0.59267,3.47133 0,1.905 0.59267,3.47133 0.635,1.56633 1.69333,2.70933 1.10067,1.10067 2.54,1.69334 1.48166,0.59266 3.175,0.59266 z" /></g><g
       id="g1"
       transform="matrix(0.26458333,0,0,0.26458333,31.25259,102.2336)"
       style="stroke-width:10;stroke-dasharray:none"><g
         id="g22"
         inkscape:label="Corazon"
         transform="translate(-12.071873,-30.017095)"
         style="stroke-width:10;stroke-dasharray:none" /><g
         id="layer2"
         inkscape:label="Perro"
         transform="translate(-12.071873,-30.017095)"
         style="stroke-width:10;stroke-dasharray:none" /><g
         id="layer3"
         inkscape:label="Gato"
         transform="translate(-12.071873,-30.017095)"
         style="stroke-width:10;stroke-dasharray:none"><path
           id="path30"
           style="fill:none;stroke:#000000;stroke-width:10;stroke-linecap:round;stroke-linejoin:round;stroke-dasharray:none"
           d="m 171.04318,110.2296 a 0.15286237,0.15286237 0 0 1 -0.15244,0.15286 0.15286237,0.15286237 0 0 1 -0.15328,-0.15203 0.15286237,0.15286237 0 0 1 0.15161,-0.15369 0.15286237,0.15286237 0 0 1 0.1541,0.15119 m 13.79075,-18.135245 c -9.89298,-2.603857 -16.87032,3.928938 -21.83418,10.254625 -3.3189,4.22943 -15.34878,9.20158 -15.34878,9.20158 -0.21608,26.75492 19.59521,12.37199 23.23936,22.52625 6.85505,19.10131 -4.53049,39.61401 -6.79573,60.50192 m 41.5281,-41.48694 c -10.57099,-27.09191 4.51593,-58.599428 -19.92405,-75.48149 4.08631,12.126312 -7.58101,22.038652 -1.72944,28.96811 M 92.400217,103.4766 a 3.2530005,3.253 0 0 1 -3.244133,3.25299 3.2530005,3.253 0 0 1 -3.261819,-3.23526 3.2530005,3.253 0 0 1 3.226352,-3.27062 3.2530005,3.253 0 0 1 3.279407,3.21742 m -52.26555,2.46246 c 11.316092,9.73662 18.211311,35.68312 34.231455,28.17155 C 94.494205,121.58801 69.107882,111.66535 57.936247,96.632472 M 35.648305,143.37077 C 35.151973,96.261796 50.009068,70.214574 94.373588,84.645487 v 0 c 0,0 21.721692,14.409214 33.072032,18.256203 14.67089,4.97243 7.49762,23.19878 0,28.53577 -9.95578,7.08676 -22.17957,0.28427 -33.072032,15.75948 -16.249768,23.08648 -7.223849,28.00093 -9.637617,45.21151 l 0.107364,0.10727 0.107883,0.10778 m 31.892042,-92.47898 c 1.59953,8.89938 6.66542,19.33584 14.77366,23.35369 M 80.574895,35.017095 a 63.534729,63.471748 0 0 0 -44.926591,18.591044 63.534729,63.471748 0 0 0 10e-7,89.762631 l 44.926587,44.88056 44.925118,44.88206 44.92659,-44.88206 44.9251,-44.88057 a 63.534729,63.471748 0 0 0 0,-89.762623 63.534729,63.471748 0 0 0 -89.85169,4e-6 63.534729,63.471748 0 0 0 -44.925115,-18.591046 z" /></g></g><text
       xml:space="preserve"
       transform="scale(0.26458333)"
       id="text2"
       style="font-style:normal;font-variant:normal;font-weight:800;font-stretch:normal;font-size:160px;line-height:0;font-family:Montserrat;-inkscape-font-specification:'Montserrat Ultra-Bold';letter-spacing:-14px;white-space:pre;shape-inside:url(#rect2);fill:#000000;stroke-width:10;stroke-linecap:round;stroke-linejoin:round;stroke-dasharray:none" /></g></svg>
